<?xml version="1.0" encoding="UTF-8" standalone="no"?>
<!-- Created with Inkscape (http://www.inkscape.org/) -->

<svg
   width="6.9520202mm"
   height="6.9514999mm"
   viewBox="0 0 6.9520202 6.9514999"
   version="1.1"
   id="svg310"
   inkscape:version="1.1 (ce6663b3b7, 2021-05-25)"
   sodipodi:docname="settings.svg"
   xmlns:inkscape="http://www.inkscape.org/namespaces/inkscape"
   xmlns:sodipodi="http://sodipodi.sourceforge.net/DTD/sodipodi-0.dtd"
   xmlns="http://www.w3.org/2000/svg"
   xmlns:svg="http://www.w3.org/2000/svg">
  <sodipodi:namedview
     id="namedview312"
     pagecolor="#505050"
     bordercolor="#eeeeee"
     borderopacity="1"
     inkscape:pageshadow="0"
     inkscape:pageopacity="0"
     inkscape:pagecheckerboard="0"
     inkscape:document-units="mm"
     showgrid="false"
     inkscape:zoom="3.3496072"
     inkscape:cx="34.780198"
     inkscape:cy="-13.882225"
     inkscape:window-width="1366"
     inkscape:window-height="654"
     inkscape:window-x="0"
     inkscape:window-y="0"
     inkscape:window-maximized="1"
     inkscape:current-layer="layer1" />
  <defs
     id="defs307" />
  <g
     inkscape:label="Calque 1"
     inkscape:groupmode="layer"
     id="layer1"
     transform="translate(-155.76655,-151.97531)">
    <path
       id="path58124"
       style="fill:#ffffff;fill-opacity:1;stroke-width:0.0135777"
       d="m 158.65422,151.97531 c -0.0977,0 -0.18235,0.0683 -0.20309,0.16381 l -0.11627,0.53382 c -0.14224,0.0465 -0.28078,0.10414 -0.41445,0.17208 l -0.46044,-0.29559 c -0.0822,-0.0528 -0.18982,-0.0411 -0.2589,0.0279 l -0.8325,0.83199 c -0.069,0.0691 -0.0807,0.1772 -0.0279,0.25941 l 0.29611,0.45992 c -0.068,0.13366 -0.12559,0.27271 -0.17208,0.41497 l -0.53434,0.11627 c -0.0955,0.0208 -0.16381,0.10487 -0.16381,0.20257 v 1.17719 c 0,0.0977 0.0683,0.18229 0.16381,0.20308 l 0.53434,0.11628 c 0.0465,0.14224 0.10413,0.28079 0.17208,0.41444 l -0.29611,0.45992 c -0.0528,0.0822 -0.0413,0.19037 0.0279,0.25942 l 0.8325,0.83251 c 0.0691,0.0691 0.17671,0.0807 0.2589,0.0279 l 0.46044,-0.2961 c 0.13367,0.0679 0.27221,0.12562 0.41445,0.17208 l 0.11627,0.53433 c 0.0208,0.0955 0.10537,0.1633 0.20309,0.1633 h 1.17719 c 0.0977,0 0.18182,-0.0678 0.20257,-0.1633 l 0.11627,-0.53433 c 0.14224,-0.0465 0.28129,-0.10414 0.41496,-0.17208 l 0.45992,0.2961 c 0.0823,0.0528 0.19034,0.0412 0.25942,-0.0279 l 0.83199,-0.83251 c 0.0691,-0.069 0.0807,-0.17721 0.0279,-0.25942 l -0.29559,-0.45992 c 0.0679,-0.13365 0.12514,-0.2722 0.17157,-0.41444 l 0.53433,-0.11628 c 0.0955,-0.0208 0.16382,-0.10539 0.16382,-0.20308 v -1.17719 c 0,-0.0977 -0.0683,-0.18178 -0.16382,-0.20257 l -0.53433,-0.11627 c -0.0464,-0.14226 -0.10362,-0.28131 -0.17157,-0.41497 l 0.29559,-0.45992 c 0.0529,-0.0822 0.0413,-0.19035 -0.0279,-0.25941 l -0.83199,-0.83199 c -0.0691,-0.0691 -0.17715,-0.0807 -0.25942,-0.0279 l -0.45992,0.29559 c -0.13367,-0.0679 -0.27272,-0.12562 -0.41496,-0.17208 l -0.11627,-0.53382 c -0.0208,-0.0955 -0.10489,-0.16381 -0.20257,-0.16381 z m 0.5581,1.92804 a 1.5993956,1.5993956 0 0 1 1.59939,1.59939 1.5993956,1.5993956 0 0 1 -1.59939,1.59938 1.5993956,1.5993956 0 0 1 -1.59938,-1.59938 1.5993956,1.5993956 0 0 1 1.59938,-1.59939 z" />
  </g>
</svg>
